<svg xmlns="http://www.w3.org/2000/svg" width="256" height="256" viewBox="0 0 256 256" role="img" aria-label="XBot Comunicador">
  <circle cx="128" cy="128" r="112" fill="#0EA5A4" stroke="#0F172A" stroke-width="10"/>
  <g transform="translate(0,2)" stroke="#0F172A" stroke-width="10" stroke-linecap="round" stroke-linejoin="round">
    <line x1="128" y1="36" x2="128" y2="52"/>
    <circle cx="128" cy="30" r="8" fill="#0EA5A4" stroke="none"/>
    <rect x="70" y="64" width="116" height="86" rx="28" fill="#E5E7EB"/>
    <rect x="88" y="86" width="80" height="40" rx="16" fill="#F8FAFC"/>
    <circle cx="112" cy="106" r="6" fill="#0F172A" stroke="none"/>
    <circle cx="144" cy="106" r="6" fill="#0F172A" stroke="none"/>
    <rect x="96" y="152" width="64" height="46" rx="18" fill="#9CA3AF"/>
    <rect x="78" y="92" width="18" height="34" rx="9" fill="#9CA3AF"/>
    <rect x="160" y="92" width="18" height="34" rx="9" fill="#9CA3AF"/>
  </g>
  <g transform="translate(168,162)" stroke="#0F172A" stroke-width="8" stroke-linecap="round" stroke-linejoin="round">
    <path d="M-38 -18 h76 a16 16 0 0 1 16 16 v18 a16 16 0 0 1-16 16 h-26 l-18 16 v-16 h-32 a16 16 0 0 1-16-16 v-18 a16 16 0 0 1 16-16z" fill="#BBF7D0"/>
    <path d="M-20 2 h12 M4 2 h12 M28 2 h12"/>
  </g>
</svg>
